# Blender 5.0.1
# www.blender.org
mtllib star.mtl
o Cube.001
v -0.000000 0.017278 -0.796342
v 1.441080 -2.074429 0.000000
v 2.349027 0.815129 -0.000000
v -1.441080 -2.074429 0.000000
v -2.349027 0.815129 -0.000000
v 0.000000 -1.067866 0.000000
v 0.000000 2.424357 -0.000000
v -0.720628 0.924357 -0.000000
v 0.720628 0.924357 -0.000000
v 1.080694 -0.256912 -0.000000
v -1.080694 -0.256912 0.000000
v 0.000000 0.017278 0.796342
vn 0.3819 0.5468 0.7451
vn -0.6085 -0.1207 0.7843
vn -0.4259 0.5039 0.7515
vn -0.0429 -0.6397 0.7675
vn -0.5472 -0.2629 0.7946
vn 0.5472 -0.2629 0.7946
vn 0.0429 -0.6397 0.7675
vn 0.4259 0.5039 0.7515
vn 0.6085 -0.1207 0.7843
vn -0.3819 0.5468 0.7451
vn 0.3819 0.5468 -0.7451
vn -0.6085 -0.1207 -0.7843
vn -0.4259 0.5039 -0.7515
vn -0.0429 -0.6397 -0.7674
vn -0.5472 -0.2629 -0.7946
vn 0.5472 -0.2629 -0.7946
vn 0.0429 -0.6397 -0.7674
vn 0.4259 0.5039 -0.7515
vn 0.6085 -0.1207 -0.7843
vn -0.3819 0.5468 -0.7451
vt 0.000000 0.000000
s 1
usemtl マテリアル.001
f 2/1/1 1/1/1 6/1/1
f 10/1/2 1/1/2 2/1/2
f 3/1/3 1/1/3 10/1/3
f 3/1/4 9/1/4 1/1/4
f 9/1/5 7/1/5 1/1/5
f 7/1/6 8/1/6 1/1/6
f 8/1/7 5/1/7 1/1/7
f 11/1/8 1/1/8 5/1/8
f 11/1/9 4/1/9 1/1/9
f 4/1/10 6/1/10 1/1/10
f 2/1/11 6/1/11 12/1/11
f 10/1/12 2/1/12 12/1/12
f 3/1/13 10/1/13 12/1/13
f 3/1/14 12/1/14 9/1/14
f 9/1/15 12/1/15 7/1/15
f 7/1/16 12/1/16 8/1/16
f 8/1/17 12/1/17 5/1/17
f 11/1/18 5/1/18 12/1/18
f 11/1/19 12/1/19 4/1/19
f 4/1/20 12/1/20 6/1/20
